<?xml version="1.0" encoding="UTF-8"?>
<svg id="Layer_1" xmlns="http://www.w3.org/2000/svg" xmlns:serif="http://www.serif.com/" version="1.1" viewBox="0 0 456 456">
  <!-- Generator: Adobe Illustrator 29.7.1, SVG Export Plug-In . SVG Version: 2.1.1 Build 8)  -->
  <defs>
    <style>
      .st0, .st1, .st2, .st3, .st4, .st5, .st6, .st7, .st8 {
        stroke-linecap: round;
        stroke-linejoin: round;
      }

      .st0, .st1, .st2, .st3, .st6, .st7, .st8 {
        fill: none;
      }

      .st0, .st1, .st5, .st8 {
        stroke-width: 12.89px;
      }

      .st0, .st5 {
        stroke: #162554;
      }

      .st1 {
        stroke: #172453;
      }

      .st2 {
        stroke: #162455;
        stroke-width: 12.03px;
      }

      .st9 {
        fill: #fdc20d;
      }

      .st10 {
        fill: #172355;
      }

      .st3 {
        stroke: #162356;
      }

      .st3, .st6, .st7 {
        stroke-width: 11.17px;
      }

      .st11, .st4 {
        fill: #fee893;
      }

      .st4 {
        stroke: #162453;
        stroke-width: 14.61px;
      }

      .st5 {
        fill: #92d1fd;
      }

      .st6 {
        stroke: #162353;
      }

      .st7 {
        stroke: #192653;
      }

      .st8 {
        stroke: #152453;
      }
    </style>
  </defs>
  <g id="Generative_Object">
    <g>
      <path class="st9" d="M328.28,169.25c-.77,2.21-1.71,8.9.66,9.17-.21,1.17-1.93,2.78-1.97,2.95-.48,2.42.43,7.19,0,9.9-7.44-7.11-14.82-14.29-22.28-21.36,1.28-4.93,2.35-34.8.33-36.04-.6-.37-3.74.69-4.92-1.31-.27-.46.11-4.17,0-5.35l32.76.27c.26,7.19,1.32,31,0,36.53-.18.78-4.4,4.72-4.59,5.24h0Z"/>
      <path class="st11" d="M328.94,178.42c-2.36-.27-1.43-6.96-.66-9.17,2.57,1.65,1.17,6.41.66,9.17Z"/>
      <g>
        <path class="st4" d="M304.69,169.9c7.46,7.07,14.84,14.25,22.28,21.36,9.42,9.01,36.48,31.27,42.1,40.4.11.19.29.34.49.49l-35.91.85-.14,119.71c-1.01,4.9-2.56,7.98-7.21,10.35-58.24,2.67-117.22.88-175.6.66-5.88-2.17-7.99-5.7-9.17-11.67-4.67-23.5,6.34-100.44-.4-115.97-.5-1.14-.61-2.06-1.7-2.88-4.25-3.22-27.98.96-34.16-1.94l131.92-122.83c2.18-.27,5.52,2.46,7.21,3.8,19.6,15.59,41.46,39.84,60.28,57.66h0Z"/>
        <path class="st10" d="M232.95,338.3c13.02-2.89,17.69,8.27,9.17,10.48-13.76,3.58-16.77-8.8-9.17-10.48Z"/>
        <path class="st5" d="M232.62,216.16c35.39-4.75,57.42,37.27,35.65,64.48-8.28,10.35-14.93,9.84-12.05,26.13v.74l-36.28-.43c1.71-16.32-3.96-15.49-12.47-25.77-19.76-23.85-5.97-60.95,25.16-65.13h0Z"/>
      </g>
    </g>
    <g>
      <path class="st8" d="M300.11,132.56c-.27-.46.11-4.17,0-5.35-.15-1.69-.43-9.48.8-10.23,4.66.42,30.87-1.56,31.96,1.19.08,3.1-.11,6.21,0,9.31.26,7.19,1.32,31,0,36.53"/>
      <line class="st6" x1="299.45" y1="251.86" x2="304.03" y2="251.59"/>
      <line class="st2" x1="288.01" y1="201.66" x2="273.54" y2="216.12"/>
      <line class="st7" x1="237.36" y1="183" x2="237.48" y2="198.73"/>
      <line class="st1" x1="250.96" y1="325.85" x2="222.79" y2="325.85"/>
      <line class="st0" x1="237.97" y1="263.32" x2="228.37" y2="253.38"/>
      <line class="st0" x1="237.97" y1="263.32" x2="247.88" y2="251.95"/>
      <line class="st0" x1="237.97" y1="263.32" x2="237.85" y2="303.57"/>
      <line class="st6" x1="167.09" y1="251.81" x2="182.16" y2="251.81"/>
      <line class="st3" x1="187.05" y1="201" x2="199.85" y2="213.8"/>
    </g>
  </g>
</svg>