<?xml version="1.0" encoding="UTF-8"?>
<svg id="Layer_1" xmlns="http://www.w3.org/2000/svg" xmlns:serif="http://www.serif.com/" version="1.1" viewBox="0 0 456 456">
  <!-- Generator: Adobe Illustrator 29.7.1, SVG Export Plug-In . SVG Version: 2.1.1 Build 8)  -->
  <defs>
    <style>
      .st0, .st1, .st2, .st3, .st4, .st5, .st6, .st7, .st8 {
        stroke-linecap: round;
        stroke-linejoin: round;
      }

      .st0, .st1, .st2, .st3, .st6, .st7, .st8 {
        fill: none;
      }

      .st0, .st1, .st5, .st8 {
        stroke-width: 12.89px;
      }

      .st0, .st5 {
        stroke: #162554;
      }

      .st1 {
        stroke: #172453;
      }

      .st2 {
        stroke: #162455;
        stroke-width: 12.03px;
      }

      .st9 {
        fill: #fdc20d;
      }

      .st10 {
        fill: #172355;
      }

      .st3 {
        stroke: #162356;
      }

      .st3, .st6, .st7 {
        stroke-width: 11.17px;
      }

      .st11, .st4 {
        fill: #fee893;
      }

      .st4 {
        stroke: #162453;
        stroke-width: 14.61px;
      }

      .st5 {
        fill: #92d1fd;
      }

      .st6 {
        stroke: #162353;
      }

      .st7 {
        stroke: #192653;
      }

      .st8 {
        stroke: #152453;
      }
    </style>
  </defs>
  <g id="Generative_Object">
    <g>
      <path class="st9" d="M305.94,176.06c-.64,1.82-1.41,7.33.54,7.55-.18.96-1.59,2.28-1.62,2.43-.39,1.99.35,5.92,0,8.14-6.12-5.85-12.19-11.76-18.34-17.58,1.06-4.05,1.93-28.65.27-29.66-.49-.3-3.08.57-4.05-1.08-.22-.37.09-3.44,0-4.4l26.97.22c.22,5.92,1.08,25.51,0,30.07-.15.64-3.62,3.88-3.78,4.31Z"/>
      <path class="st11" d="M306.48,183.61c-1.94-.22-1.18-5.73-.54-7.55,2.11,1.36.96,5.28.54,7.55Z"/>
      <g>
        <path class="st4" d="M286.52,176.6c6.14,5.82,12.21,11.73,18.34,17.58,7.76,7.42,30.03,25.74,34.66,33.26.1.16.24.28.4.4l-29.55.7-.11,98.54c-.83,4.04-2.11,6.57-5.93,8.52-47.94,2.19-96.48.72-144.54.54-4.84-1.78-6.58-4.69-7.55-9.6-3.84-19.35,5.22-82.67-.32-95.46-.41-.94-.5-1.69-1.4-2.37-3.5-2.65-23.03.79-28.11-1.6l108.58-101.09c1.8-.22,4.54,2.02,5.93,3.13,16.13,12.84,34.13,32.79,49.62,47.46Z"/>
        <path class="st10" d="M227.46,315.2c10.72-2.38,14.56,6.81,7.55,8.63-11.33,2.94-13.81-7.24-7.55-8.63Z"/>
        <path class="st5" d="M227.19,214.67c29.13-3.91,47.27,30.68,29.34,53.07-6.82,8.52-12.29,8.09-9.92,21.51v.61l-29.86-.36c1.4-13.43-3.26-12.76-10.27-21.21-16.27-19.63-4.92-50.17,20.71-53.61Z"/>
      </g>
    </g>
    <g>
      <path class="st8" d="M282.74,145.85c-.22-.37.09-3.44,0-4.4-.13-1.39-.35-7.8.66-8.43,3.83.35,25.41-1.29,26.31.98.07,2.55-.09,5.12,0,7.67.22,5.92,1.08,25.51,0,30.07"/>
      <line class="st6" x1="282.21" y1="244.06" x2="285.97" y2="243.83"/>
      <line class="st2" x1="272.79" y1="202.73" x2="260.88" y2="214.64"/>
      <line class="st7" x1="231.1" y1="187.38" x2="231.2" y2="200.32"/>
      <line class="st1" x1="242.29" y1="304.96" x2="219.1" y2="304.96"/>
      <line class="st0" x1="231.6" y1="253.49" x2="223.7" y2="245.31"/>
      <line class="st0" x1="231.6" y1="253.49" x2="239.75" y2="244.14"/>
      <line class="st0" x1="231.6" y1="253.49" x2="231.5" y2="286.62"/>
      <line class="st6" x1="173.26" y1="244.01" x2="185.66" y2="244.01"/>
      <line class="st3" x1="189.69" y1="202.19" x2="200.23" y2="212.73"/>
    </g>
  </g>
</svg>